<svg xmlns="http://www.w3.org/2000/svg" viewBox="0 0 16 16" shape-rendering="crispEdges">
  <rect x="2" y="1" width="13" height="1" fill="#9C978A"/>
  <rect x="2" y="2" width="1" height="1" fill="#9C978A"/>
  <rect x="3" y="2" width="8" height="1" fill="#F4F1E8"/>
  <rect x="11" y="2" width="3" height="1" fill="#D9D5C5"/>
  <rect x="14" y="2" width="1" height="1" fill="#9C978A"/>
  <rect x="2" y="3" width="1" height="1" fill="#9C978A"/>
  <rect x="3" y="3" width="9" height="1" fill="#F4F1E8"/>
  <rect x="12" y="3" width="2" height="1" fill="#D9D5C5"/>
  <rect x="14" y="3" width="1" height="1" fill="#9C978A"/>
  <rect x="2" y="4" width="1" height="1" fill="#9C978A"/>
  <rect x="3" y="4" width="10" height="1" fill="#F4F1E8"/>
  <rect x="13" y="4" width="1" height="1" fill="#D9D5C5"/>
  <rect x="14" y="4" width="1" height="1" fill="#9C978A"/>
  <rect x="2" y="5" width="1" height="1" fill="#9C978A"/>
  <rect x="3" y="5" width="2" height="1" fill="#F4F1E8"/>
  <rect x="5" y="5" width="2" height="1" fill="#3E7FBF"/>
  <rect x="7" y="5" width="7" height="1" fill="#F4F1E8"/>
  <rect x="14" y="5" width="1" height="1" fill="#9C978A"/>
  <rect x="2" y="6" width="1" height="1" fill="#9C978A"/>
  <rect x="3" y="6" width="3" height="1" fill="#F4F1E8"/>
  <rect x="6" y="6" width="2" height="1" fill="#3E7FBF"/>
  <rect x="8" y="6" width="6" height="1" fill="#F4F1E8"/>
  <rect x="14" y="6" width="1" height="1" fill="#9C978A"/>
  <rect x="2" y="7" width="1" height="1" fill="#9C978A"/>
  <rect x="3" y="7" width="2" height="1" fill="#F4F1E8"/>
  <rect x="5" y="7" width="2" height="1" fill="#3E7FBF"/>
  <rect x="7" y="7" width="1" height="1" fill="#F4F1E8"/>
  <rect x="8" y="7" width="3" height="1" fill="#3E7FBF"/>
  <rect x="11" y="7" width="3" height="1" fill="#F4F1E8"/>
  <rect x="14" y="7" width="1" height="1" fill="#9C978A"/>
  <rect x="2" y="8" width="1" height="1" fill="#9C978A"/>
  <rect x="3" y="8" width="11" height="1" fill="#F4F1E8"/>
  <rect x="14" y="8" width="1" height="1" fill="#9C978A"/>
  <rect x="2" y="9" width="1" height="1" fill="#9C978A"/>
  <rect x="3" y="9" width="2" height="1" fill="#F4F1E8"/>
  <rect x="5" y="9" width="6" height="1" fill="#B9B6A8"/>
  <rect x="11" y="9" width="3" height="1" fill="#F4F1E8"/>
  <rect x="14" y="9" width="1" height="1" fill="#9C978A"/>
  <rect x="2" y="10" width="1" height="1" fill="#9C978A"/>
  <rect x="3" y="10" width="11" height="1" fill="#F4F1E8"/>
  <rect x="14" y="10" width="1" height="1" fill="#9C978A"/>
  <rect x="2" y="11" width="1" height="1" fill="#9C978A"/>
  <rect x="3" y="11" width="2" height="1" fill="#F4F1E8"/>
  <rect x="5" y="11" width="5" height="1" fill="#B9B6A8"/>
  <rect x="10" y="11" width="4" height="1" fill="#F4F1E8"/>
  <rect x="14" y="11" width="1" height="1" fill="#9C978A"/>
  <rect x="2" y="12" width="1" height="1" fill="#9C978A"/>
  <rect x="3" y="12" width="11" height="1" fill="#F4F1E8"/>
  <rect x="14" y="12" width="1" height="1" fill="#9C978A"/>
  <rect x="2" y="13" width="1" height="1" fill="#9C978A"/>
  <rect x="3" y="13" width="11" height="1" fill="#F4F1E8"/>
  <rect x="14" y="13" width="1" height="1" fill="#9C978A"/>
  <rect x="2" y="14" width="1" height="1" fill="#9C978A"/>
  <rect x="3" y="14" width="11" height="1" fill="#F4F1E8"/>
  <rect x="14" y="14" width="1" height="1" fill="#9C978A"/>
  <rect x="2" y="15" width="13" height="1" fill="#9C978A"/>
</svg>
